<svg class="w-full h-full" xmlns="http://www.w3.org/2000/svg" viewBox="0 0 98 98">
    <path d="M29.27,78.2c-15-17.05-5-60.15,1.38-60.15C18.33,17.81-2.45,25.89.35,54.72A48.84,48.84,0,0,0,78.47,87.34C54.91,104.19,38.94,89.17,29.27,78.2Z"/>
    <path d="M84.3,49.24c-12.46,24.93-50.68,35.42-55,29,7.47,10.85,26,26,49.35,9A48.73,48.73,0,0,0,67.14,3.61C93.53,15.33,90.86,36.11,84.3,49.24Z"/>
    <path d="M30.65,18.05c27-2.89,57.53,24.75,53.65,31.19,7.6-12.88,9.34-33.91-17-45.63A48.87,48.87,0,0,0,.44,55.41C-1.47,26.74,20.57,19.13,30.65,18.05Z"/>
</svg>